<?xml version="1.0" ?><svg style="enable-background:new 0 0 512 512;" version="1.1" viewBox="0 0 512 512" xml:space="preserve" xmlns="http://www.w3.org/2000/svg" xmlns:xlink="http://www.w3.org/1999/xlink"><style type="text/css">
	.st0{fill:#1E1E1E;}
	.st1{fill:#464646;stroke:#21759B;stroke-width:2;stroke-miterlimit:10;}
	.st2{fill:#FFFFFF;}
</style><g id="Edges"/><g id="Background_Bottom"><g><path class="st0" d="M492.3,443.1c0,34.2-27.7,61.9-61.9,61.9H80.7c-34.2,0-61.9-27.7-61.9-61.9V93.4c0-34.2,27.7-61.9,61.9-61.9    h349.7c34.2,0,61.9,27.7,61.9,61.9V443.1z"/></g></g><g id="Background"><path class="st1" d="M492.3,418.4c0,34.2-27.7,61.9-61.9,61.9H80.7c-34.2,0-61.9-27.7-61.9-61.9V68.6c0-34.2,27.7-61.9,61.9-61.9   h349.7c34.2,0,61.9,27.7,61.9,61.9V418.4z"/></g><g id="Symbol"><path class="st2" d="M256.3,112.1c-79.6,0-144,64.5-144,144c0,79.6,64.5,144,144,144c79.6,0,144-64.5,144-144   S335.9,112.1,256.3,112.1z M391.2,267.9c-68.3-23.9-122.6-78.1-146.7-146.7C328.4,114,398.4,184,391.2,267.9z M215.6,215.4   c22.5-22.5,59-22.5,81.5,0s22.5,59,0,81.5c-22.5,22.5-59,22.5-81.5,0C193.1,274.4,193.1,237.9,215.6,215.4z M121.4,244.4   C189.7,268.3,244,322.5,268.1,391C184.1,398.3,114.2,328.2,121.4,244.4z"/></g></svg>